PathFileType	4	(X/Y/Z)	/Users/itak/Documents/Research/Walk-IL/dataset/trc/00017_00004.trc
DataRate	CameraRate	NumFrames	NumMarkers	Units	OrigDataRate	OrigDataStartFrame	OrigNumFrames
100.000000	100.000000	4	56	mm	100.000000	275	441
Frame#	Time	RPSI			LPSI			L3			STRN			T10			C7			CLAV			RBAK			LBAK			LSHO			LUPA			LAEL			LAOL			LWTS			LWPS			LFRA			LIFD			LHPS			LHTS			RSHO			RUPA			RAEL			RAOL			RWTS			RWPS			RFRA			RIFD			RHTS			RHPS			RBHD			LFHD			RFHD			LBHD			LHIP			RHIP			RASI			LASI			LKNE			LANK			LTIP			LTOE			LMT1			LMT5			LHEE			RKNE			RTHI			RANK			RTIP			RTOE			RMT1			RMT5			RHEE			LTHI			*53			*54			*55			
		X1	Y1	Z1	X2	Y2	Z2	X3	Y3	Z3	X4	Y4	Z4	X5	Y5	Z5	X6	Y6	Z6	X7	Y7	Z7	X8	Y8	Z8	X9	Y9	Z9	X10	Y10	Z10	X11	Y11	Z11	X12	Y12	Z12	X13	Y13	Z13	X14	Y14	Z14	X15	Y15	Z15	X16	Y16	Z16	X17	Y17	Z17	X18	Y18	Z18	X19	Y19	Z19	X20	Y20	Z20	X21	Y21	Z21	X22	Y22	Z22	X23	Y23	Z23	X24	Y24	Z24	X25	Y25	Z25	X26	Y26	Z26	X27	Y27	Z27	X28	Y28	Z28	X29	Y29	Z29	X30	Y30	Z30	X31	Y31	Z31	X32	Y32	Z32	X33	Y33	Z33	X34	Y34	Z34	X35	Y35	Z35	X36	Y36	Z36	X37	Y37	Z37	X38	Y38	Z38	X39	Y39	Z39	X40	Y40	Z40	X41	Y41	Z41	X42	Y42	Z42	X43	Y43	Z43	X44	Y44	Z44	X45	Y45	Z45	X46	Y46	Z46	X47	Y47	Z47	X48	Y48	Z48	X49	Y49	Z49	X50	Y50	Z50	X51	Y51	Z51	X52	Y52	Z52	X53	Y53	Z53	X54	Y54	Z54	X55	Y55	Z55	X56	Y56	Z56	

276	2.75	-670.016357421875	1066.772338867188	-197.3309020996094	-691.7903442382812	1061.319091796875	-357.260986328125	-683.8668823242188	1128.500244140625	-285.8085632324219	-456.18310546875	1321.63525390625	-302.1557922363281	-703.5133666992188	1273.963012695312	-288.4884948730469	-656.6349487304688	1541.437622070312	-298.9841918945312	-498.8160705566406	1447.994018554688	-302.9782409667969	-704.9672241210938	1402.717529296875	-217.6364440917969	-677.092041015625	1501.072509765625	-396.9708251953125	-576.5387573242188	1509.728393554688	-475.2593994140625	-615.2473754882812	1388.470092773438	-556.1962890625	-636.4415893554688	1173.435913085938	-587.5311889648438	-690.8140869140625	1164.165649414062	-495.89111328125	-603.8959350585938	901.9645385742188	-550.92529296875	-682.4761352539062	909.6211547851562	-591.4833984375	-645.211181640625	1057.603759765625	-600.251953125	-624.212890625	715.4677734375	-546.1241455078125	-672.655029296875	815.1902465820312	-598.2625732421875	-606.369873046875	806.938232421875	-572.6885986328125	-571.885986328125	1523.727294921875	-129.2553405761719	-577.0029907226562	1450.255615234375	-56.68713760375977	-581.300048828125	1179.370239257812	-27.39450645446777	-593.1595458984375	1149.7861328125	-122.4930191040039	-407.9758911132812	951.5347290039062	-81.45743560791016	-459.1075134277344	922.1543579101562	-11.07169628143311	-552.6456298828125	1105.48046875	-14.72214603424072	-347.1677856445312	775.6270751953125	-103.8067092895508	-349.4122009277344	852.2200927734375	-75.01247406005859	-397.04443359375	834.3388671875	-20.42198181152344	-587.2092895507812	1721.939697265625	-216.4641876220703	-415.6300964355469	1727.859741210938	-340.4432067871094	-413.7638549804688	1726.634399414062	-241.6365051269531	-597.276123046875	1728.960815429688	-360.9343872070312	-611.033935546875	959.9597778320312	-472.8260803222656	-542.607421875	963.0092163085938	-109.3890151977539	-453.5978088378906	993.810791015625	-192.7658233642578	-487.2606201171875	1007.345703125	-425.3940124511719	-517.570556640625	520.2666625976562	-415.0437927246094	-624.4100341796875	38.14301300048828	-384.9813842773438	-595.9183349609375	280.999267578125	-412.8367919921875	-402.8390502929688	39.45759582519531	-328.9129333496094	-460.2846374511719	46.79283142089844	-308.7156982421875	-500.5406494140625	40.875244140625	-407.8973388671875	-692.1244506835938	46.70573806762695	-327.7544250488281	-505.981201171875	520.4559326171875	-149.4811401367188	-511.6466369628906	795.6986694335938	-113.8925399780273	-803.1307373046875	108.8884429931641	-163.6009979248047	-571.2107543945312	403.239013671875	-144.0308227539062	-578.6554565429688	48.35295104980469	-175.3179168701172	-635.6918334960938	64.53570556640625	-214.0119018554688	-665.6480712890625	66.94834136962891	-121.987548828125	-851.3767700195312	121.1006240844727	-215.3155059814453	-558.5797119140625	652.7488403320312	-453.4582214355469	nan	nan	nan	nan	nan	nan	nan	nan	nan	
277	2.76	-675.372802734375	1066.853637695312	-196.9772644042969	-696.5579223632812	1061.380859375	-356.8361511230469	-689.0321655273438	1128.269287109375	-285.1186828613281	-461.8910827636719	1321.808471679688	-300.9696350097656	-709.1867065429688	1273.739868164062	-287.6004943847656	-662.7884521484375	1541.325805664062	-297.8278503417969	-504.7528991699219	1448.098876953125	-301.799560546875	-710.9597778320312	1402.441284179688	-216.6554718017578	-683.1012573242188	1500.9755859375	-395.8169555664062	-582.5379028320312	1509.870971679688	-474.0679321289062	-621.510498046875	1388.82080078125	-555.1373291015625	-643.6585083007812	1174.064086914062	-586.8967895507812	-697.7051391601562	1164.724243164062	-495.1128234863281	-611.6569213867188	902.439697265625	-551.0369262695312	-690.353271484375	910.3549194335938	-591.2841186523438	-652.7622680664062	1058.27734375	-599.8609008789062	-632.2474975585938	716.018310546875	-546.5155639648438	-680.7188110351562	815.92041015625	-598.3009033203125	-614.3214721679688	807.5087280273438	-572.9510498046875	-578.1431884765625	1523.608642578125	-128.0591278076172	-583.1487426757812	1450.064208984375	-55.52228546142578	-586.6766357421875	1179.114990234375	-26.35361289978027	-598.651611328125	1149.576538085938	-121.4489212036133	-412.2169494628906	952.3383178710938	-81.32962036132812	-462.9634399414062	922.508056640625	-10.83087730407715	-557.5446166992188	1105.295654296875	-13.83060073852539	-350.3017883300781	776.877685546875	-104.1393661499023	-353.0074768066406	853.3885498046875	-75.21517181396484	-400.2864685058594	835.1431274414062	-20.48091506958008	-593.5852661132812	1721.856079101562	-215.1695556640625	-421.9736633300781	1728.172119140625	-339.0680541992188	-420.1468505859375	1726.888305664062	-240.2848358154297	-603.62158203125	1728.9462890625	-359.61572265625	-615.0587768554688	960.2445068359375	-472.2183837890625	-548.6884765625	962.6473999023438	-108.2821426391602	-459.1312866210938	993.517333984375	-191.2247009277344	-491.7015075683594	1007.612121582031	-424.0205688476562	-520.171142578125	520.8870849609375	-414.1311950683594	-624.4525146484375	38.07615661621094	-385.0421447753906	-597.1211547851562	281.1882019042969	-412.5965576171875	-402.9562683105469	39.41912460327148	-328.5376892089844	-460.37548828125	46.75923156738281	-308.4705505371094	-500.7039794921875	41.19756317138672	-407.69677734375	-692.2903442382812	46.57372665405273	-327.8818664550781	-517.5761108398438	519.6082153320312	-148.0258331298828	-519.6701049804688	794.9791870117188	-112.9863204956055	-820.638916015625	112.3767318725586	-162.7984466552734	-584.382568359375	403.1028137207031	-142.8124542236328	-597.1267700195312	48.68367004394531	-174.8459930419922	-653.9871215820312	65.69253540039062	-213.5067138671875	-683.7527465820312	68.39285278320312	-121.4234924316406	-868.9025268554688	125.167594909668	-214.3757934570312	-561.6434326171875	653.0823364257812	-452.7899169921875	nan	nan	nan	nan	nan	nan	nan	nan	nan	
278	2.77	-680.7667846679688	1066.945434570312	-196.3638000488281	-701.343017578125	1061.448852539062	-356.3201293945312	-694.185302734375	1128.014038085938	-284.33984375	-467.5999145507812	1321.9404296875	-299.7370300292969	-714.8220825195312	1273.481689453125	-286.6588745117188	-668.9159545898438	1541.1845703125	-296.6343688964844	-510.677490234375	1448.16259765625	-300.5824890136719	-716.939208984375	1402.135864257812	-215.6355743408203	-689.101806640625	1500.840576171875	-394.6295471191406	-588.5203857421875	1509.977661132812	-472.8426513671875	-627.7418823242188	1389.133178710938	-554.0385131835938	-650.7543334960938	1174.639892578125	-586.1991577148438	-704.4874877929688	1165.2216796875	-494.2898864746094	-619.0559692382812	902.914306640625	-550.98291015625	-697.87255859375	910.988037109375	-590.9375	-660.1140747070312	1058.880126953125	-599.3745727539062	-639.716552734375	716.545654296875	-546.6851806640625	-688.3202514648438	816.5474243164062	-598.151611328125	-621.8229370117188	808.0576782226562	-573.0086059570312	-584.3824462890625	1523.46923828125	-126.8314361572266	-589.2881469726562	1449.854125976562	-54.32706451416016	-592.1005859375	1178.854614257812	-25.28694343566895	-604.1700439453125	1149.358032226562	-120.3777084350586	-416.597900390625	953.0581665039062	-81.09774017333984	-466.9892578125	922.8134155273438	-10.50261688232422	-562.5235595703125	1105.104370117188	-12.8978385925293	-353.6807861328125	778.0059204101562	-104.3419799804688	-356.8032836914062	854.4404296875	-75.29212188720703	-403.76123046875	835.8526611328125	-20.42424201965332	-599.923583984375	1721.74658203125	-213.8513488769531	-428.2788696289062	1728.424072265625	-337.67724609375	-426.48974609375	1727.08544921875	-238.9136047363281	-609.914794921875	1728.908325195312	-358.2673034667969	-619.1420288085938	960.5472412109375	-471.5415649414062	-554.7523803710938	962.2377319335938	-107.1510848999023	-464.6396179199219	993.1549682617188	-189.6643218994141	-496.1788024902344	1007.8583984375	-422.6017761230469	-522.77880859375	521.510498046875	-413.2000732421875	-624.5126953125	38.0107421875	-385.1076354980469	-598.3405151367188	281.3726196289062	-412.3668823242188	-403.0784301757812	39.40698623657227	-328.1425476074219	-460.4883117675781	46.74241256713867	-308.2110900878906	-500.8650512695312	41.53330230712891	-407.4942016601562	-692.476318359375	46.43511962890625	-328.0162963867188	-529.0693359375	518.8304443359375	-146.4739074707031	-527.6715698242188	794.2693481445312	-112.0041122436523	-837.6380004882812	115.7819900512695	-162.0329437255859	-597.3427124023438	403.0047607421875	-141.4917907714844	-615.0906372070312	49.06570816040039	-174.2515869140625	-671.7476806640625	66.84523773193359	-212.9332580566406	-701.3719482421875	69.83435821533203	-120.7917098999023	-885.9052124023438	129.1042175292969	-213.4546661376953	-564.72900390625	653.4170532226562	-452.1120910644531	nan	nan	nan	nan	nan	nan	nan	nan	nan	
279	2.78	-686.2161254882812	1067.045043945312	-195.4810180664062	-706.151123046875	1061.5224609375	-355.7176818847656	-699.3389892578125	1127.734741210938	-283.4812927246094	-473.3079833984375	1322.036254882812	-298.4533081054688	-720.4223022460938	1273.191162109375	-285.6568298339844	-675.0230712890625	1541.012817382812	-295.4013977050781	-516.593017578125	1448.190185546875	-299.3255920410156	-722.8983764648438	1401.804321289062	-214.5664215087891	-695.0953979492188	1500.66796875	-393.4058532714844	-594.4906616210938	1510.04638671875	-471.5790405273438	-633.9376220703125	1389.40087890625	-552.8912963867188	-657.7175903320312	1175.156005859375	-585.4310302734375	-711.1505737304688	1165.654541015625	-493.4120483398438	-626.0895385742188	903.3779296875	-550.765869140625	-705.0376586914062	911.5157470703125	-590.445556640625	-667.2606811523438	1059.40673828125	-598.7906494140625	-646.6641845703125	717.0311279296875	-546.64404296875	-695.4778442382812	817.0687866210938	-597.8214111328125	-628.8992919921875	808.5729370117188	-572.872314453125	-590.6039428710938	1523.318237304688	-125.5709838867188	-595.42333984375	1449.636840820312	-53.09953689575195	-597.570068359375	1178.595825195312	-24.19868469238281	-609.70703125	1149.143432617188	-119.2854156494141	-421.1165161132812	953.6949462890625	-80.76377105712891	-471.1954040527344	923.071044921875	-10.08983707427979	-567.6019897460938	1104.913452148438	-11.9330358505249	-357.3218383789062	779.009033203125	-104.4174118041992	-360.8080749511719	855.3751220703125	-75.24555206298828	-407.483642578125	836.462158203125	-20.2587890625	-606.2229614257812	1721.616088867188	-212.508056640625	-434.5484924316406	1728.612915039062	-336.2763061523438	-432.7891845703125	1727.22509765625	-237.5260467529297	-616.1619873046875	1728.851318359375	-356.8914794921875	-623.294921875	960.864501953125	-470.8005676269531	-560.7997436523438	961.7857055664062	-106.0166702270508	-470.1279296875	992.7319946289062	-188.0941925048828	-500.6961059570312	1008.095703125	-421.1402587890625	-525.3883056640625	522.1340942382812	-412.2498779296875	-624.5908813476562	37.9485969543457	-385.1766052246094	-599.5681762695312	281.5530090332031	-412.1481323242188	-403.2161865234375	39.44646072387695	-327.7369689941406	-460.63720703125	46.75424194335938	-307.9403381347656	-501.0195007324219	41.87273406982422	-407.2940063476562	-692.6775512695312	46.28972625732422	-328.1559448242188	-540.459716796875	518.1178588867188	-144.8258819580078	-535.6383666992188	793.5748901367188	-110.9466171264648	-854.1022338867188	119.0236282348633	-161.2841033935547	-610.0846557617188	402.9305725097656	-140.0706329345703	-632.498046875	49.45780563354492	-173.5531616210938	-688.9312133789062	67.94232940673828	-212.3034057617188	-718.455322265625	71.21161651611328	-120.091682434082	-902.3446655273438	132.8540649414062	-212.5335388183594	-567.8212280273438	653.7549438476562	-451.420166015625	nan	nan	nan	nan	nan	nan	nan	nan	nan	
